#!OML:ASF I:\Actors\actors\Patient Classification 1\Patient 1\Session 1\Subject1.ASF
:FULLY-SPECIFIED
:DEGREES
1465
root 0.731323 17.4536 9.58694 7.28987 -1.32984 -9.36433
lowerback -2.32067 1.37506 4.12396
upperback -10.9365 2.13265 1.57631
thorax -10.2375 0.767381 -0.750783
lowerneck -6.51057 -1.90635 5.02871
upperneck 23.0703 -2.95457 -2.17365
head 8.08726 -1.18917 -1.83323
rclavicle 6.16232e-015 -3.57812e-014
rhumerus -7.03146 25.4973 -76.8517
rradius 85.9065
rwrist -7.3214
rhand 10.5404 -41.5032
rfingers 7.12502
rthumb 35.6387 -67.9076
lclavicle 6.16232e-015 -3.57812e-014
lhumerus 35.8828 -51.8398 27.8485
lradius 73.9265
lwrist 5.94235
lhand -30.364 -28.9833
lfingers 7.12502
lthumb -3.66895 0.964821
rfemur -2.37475 17.4383 26.4067
rtibia 7.15903
rfoot -15.5668 -22.343
rtoes -0.161559
lfemur 5.68251 -33.9129 -10.6217
ltibia -1.77168
lfoot -14.6624 42.2416
ltoes -0.19341
1466
root 0.74494 17.4497 9.59197 7.15777 -1.62419 -9.21035
lowerback -2.57815 1.34715 4.51826
upperback -11.073 2.08101 1.39303
thorax -10.2273 0.693859 -1.15582
lowerneck -6.50967 -1.95873 5.15824
upperneck 23.8288 -3.02474 -2.32501
head 8.33565 -1.21421 -1.92588
rclavicle -1.19271e-014 1.27222e-014
rhumerus -6.70805 25.5282 -77.9826
rradius 84.9465
rwrist -6.82979
rhand 10.3608 -41.5115
rfingers 7.12502
rthumb 35.4685 -67.9569
lclavicle -1.19271e-014 1.27222e-014
lhumerus 37.6152 -52.5633 27.5563
lradius 71.3093
lwrist 6.59558
lhand -30.7782 -29.2796
lfingers 7.12502
lthumb -4.06899 0.661282
rfemur -2.21294 17.5673 26.2062
rtibia 7.14108
rfoot -15.5664 -22.242
rtoes -0.200446
lfemur 6.24345 -34.3607 -11.2726
ltibia -1.93215
lfoot -15.0326 42.8739
ltoes 0.375327
1467
root 0.757529 17.4463 9.59774 7.00404 -1.91948 -9.14781
lowerback -2.46703 1.31116 5.30553
upperback -11.3802 2.04834 1.02604
thorax -10.6241 0.568481 -1.98741
lowerneck -6.51674 -1.99394 5.39297
upperneck 24.7151 -3.13417 -2.29158
head 8.63386 -1.2274 -1.98169
rclavicle -5.96354e-015 -1.59028e-015
rhumerus -6.8365 25.4634 -79.5788
rradius 83.951
rwrist -6.25217
rhand 10.1844 -41.3433
rfingers 7.12502
rthumb 35.3012 -67.8285
lclavicle -5.96354e-015 -1.59028e-015
lhumerus 38.7037 -53.542 27.4037
lradius 69.0558
lwrist 8.66441
lhand -30.6654 -28.8511
lfingers 7.12502
lthumb -3.96004 1.09182
rfemur -1.99998 17.7134 26.136
rtibia 7.10093
rfoot -15.5566 -22.1732
rtoes -0.343654
lfemur 6.82158 -34.733 -11.811
ltibia -2.07433
lfoot -15.5487 43.4085
ltoes 1.1234
1468
root 0.767342 17.4422 9.60347 6.80949 -2.22414 -9.14071
lowerback -3.5141 1.19038 4.51039
upperback -11.0223 1.83391 1.81551
thorax -9.64188 0.608166 -0.666513
lowerneck -6.47326 -1.96182 4.78894
upperneck 24.8859 -2.91294 -2.6356
head 8.69245 -1.21021 -1.97903
rclavicle 5.36719e-015 3.18055e-015
rhumerus -5.63051 26.3836 -78.9413
rradius 82.9585
rwrist -6.17548
rhand 10.1124 -41.3577
rfingers 7.12502
rthumb 35.2329 -67.859
lclavicle 5.36719e-015 3.18055e-015
lhumerus 38.4259 -53.3366 29.8994
lradius 66.8093
lwrist 10.8904
lhand -30.3428 -27.7983
lfingers 7.12502
lthumb -3.64855 2.15018
rfemur -1.72713 17.8299 26.1533
rtibia 7.03602
rfoot -15.5192 -22.1033
rtoes -0.498362
lfemur 7.41582 -34.9114 -12.2347
ltibia -2.23924
lfoot -16.1144 43.7546
ltoes 2.02307
1469
root 0.774903 17.438 9.60918 6.61772 -2.56294 -9.14468
lowerback -3.41448 1.1388 4.94862
upperback -11.3009 1.78196 1.68886
thorax -10.0125 0.524241 -1.04333
lowerneck -6.15639 -1.92754 4.91475
upperneck 25.4611 -2.89398 -2.56162
head 8.83394 -1.1743 -1.98026
rclavicle -2.78299e-015 -1.59028e-015
rhumerus -5.78957 26.7599 -80.0143
rradius 82.0545
rwrist -6.11367
rhand 9.97391 -41.4874
rfingers 7.12502
rthumb 35.1016 -68.0197
lclavicle -2.78299e-015 -1.59028e-015
lhumerus 38.0093 -54.2567 30.9012
lradius 65.2651
lwrist 13.011
lhand -29.8019 -26.5496
lfingers 7.12502
lthumb -3.12614 3.40719
rfemur -1.45635 17.9503 26.1909
rtibia 6.97965
rfoot -15.5133 -21.9827
rtoes -0.506959
lfemur 7.97378 -34.9117 -12.5892
ltibia -2.40624
lfoot -16.5786 43.9985
ltoes 2.72076
1470
root 0.782131 17.4339 9.61567 6.44996 -2.89842 -9.13242
lowerback -3.38491 1.07498 5.32742
upperback -11.4851 1.70564 1.58656
thorax -10.24 0.437128 -1.35869
lowerneck -6.10091 -1.89462 5.03391
upperneck 25.9837 -2.8791 -2.53672
head 9.00598 -1.1466 -2.00091
rclavicle -4.77083e-015 -3.18055e-015
rhumerus -5.7135 27.1617 -80.8415
rradius 81.1083
rwrist -6.07544
rhand 9.99129 -41.5449
rfingers 7.12502
rthumb 35.1181 -68.0733
lclavicle -4.77083e-015 -3.18055e-015
lhumerus 37.5475 -55.0662 31.6494
lradius 64.015
lwrist 14.4221
lhand -29.2345 -25.8397
lfingers 7.12502
lthumb -2.57816 4.12447
rfemur -1.22864 18.0244 26.2013
rtibia 6.96372
rfoot -15.4936 -21.8101
rtoes -0.772556
lfemur 8.47201 -34.8658 -12.9443
ltibia -2.52003
lfoot -16.8865 44.2164
ltoes 3.24266
1471
root 0.789053 17.4296 9.62117 6.30289 -3.20783 -9.07694
lowerback -3.63494 0.958151 5.23915
upperback -11.4403 1.53761 1.77796
thorax -10.0565 0.377551 -1.09241
lowerneck -6.33969 -1.80274 4.86208
upperneck 26.346 -2.75611 -2.48424
head 9.18685 -1.09516 -1.95425
rclavicle -9.54166e-015 -2.06736e-014
rhumerus -5.09567 27.8935 -80.9012
rradius 80.2125
rwrist -5.98131
rhand 10.2678 -41.557
rfingers 7.12502
rthumb 35.3803 -68.0234
lclavicle -9.54166e-015 -2.06736e-014
lhumerus 37.1798 -55.5142 32.3688
lradius 62.9144
lwrist 14.8315
lhand -29.1045 -25.8035
lfingers 7.12502
lthumb -2.45264 4.16212
rfemur -1.04142 18.0921 26.1484
rtibia 6.94828
rfoot -15.4522 -21.6613
rtoes -1.13214
lfemur 8.8821 -34.8197 -13.3102
ltibia -2.57198
lfoot -17.1305 44.3947
ltoes 3.69941
1472
root 0.794185 17.4247 9.62603 6.16912 -3.51207 -9.09344
lowerback -3.82052 0.853322 5.33065
upperback -11.4291 1.39034 1.89539
thorax -9.94527 0.304985 -1.00788
lowerneck -7.0498 -1.76819 4.46343
upperneck 27.2438 -2.75698 -2.23754
head 9.65256 -1.09586 -1.83127
rclavicle 4.13472e-014 -7.15625e-014
rhumerus -4.6466 28.7124 -80.9667
rradius 79.4888
rwrist -5.78301
rhand 9.81567 -41.4873
rfingers 7.12502
rthumb 34.9515 -68.0547
lclavicle 4.13472e-014 -7.15625e-014
lhumerus 36.9281 -56.122 32.5224
lradius 62.1734
lwrist 14.5664
lhand -29.4495 -25.9903
lfingers 7.12502
lthumb -2.78584 3.97126
rfemur -0.890333 18.1724 26.1757
rtibia 6.95387
rfoot -15.389 -21.512
rtoes -1.45224
lfemur 9.25303 -34.7262 -13.5352
ltibia -2.6432
lfoot -17.312 44.5506
ltoes 3.85014
1473
root 0.798073 17.4208 9.63197 6.06297 -3.82064 -9.16165
lowerback -4.11946 0.775082 5.32638
upperback -11.3748 1.27291 2.10781
thorax -9.7183 0.264342 -0.770371
lowerneck -8.12084 -1.82062 3.69314
upperneck 28.5168 -2.87695 -1.82376
head 10.3411 -1.16577 -1.60943
rclavicle -3.67752e-015 1.98785e-015
rhumerus -4.1454 29.6294 -80.6904
rradius 78.8465
rwrist -5.63396
rhand 8.99915 -41.4143
rfingers 7.12502
rthumb 34.1765 -68.1587
lclavicle -3.67752e-015 1.98785e-015
lhumerus 36.651 -56.7093 32.5952
lradius 61.8149
lwrist 14.5346
lhand -30.0412 -25.8155
lfingers 7.12502
lthumb -3.35722 4.13778
rfemur -0.789356 18.1765 26.2439
rtibia 6.99706
rfoot -15.3252 -21.2658
rtoes -1.65939
lfemur 9.61314 -34.6377 -13.6914
ltibia -2.72681
lfoot -17.5358 44.7266
ltoes 4.03184
1474
root 0.80242 17.418 9.63744 5.98513 -4.14437 -9.16478
lowerback -4.0276 0.757698 5.64852
upperback -11.5229 1.25949 2.00008
thorax -9.94127 0.21442 -1.06244
lowerneck -8.66004 -1.82241 3.53125
upperneck 29.3276 -2.99915 -1.44199
head 10.76 -1.18279 -1.48333
rclavicle -1.33186e-014 4.25399e-014
rhumerus -4.08186 30.206 -80.8606
rradius 78.2754
rwrist -5.52639
rhand 9.29802 -41.3518
rfingers 7.12502
rthumb 34.4602 -68.0322
lclavicle -1.33186e-014 4.25399e-014
lhumerus 36.5937 -57.617 31.9448
lradius 61.9104
lwrist 15.758
lhand -30.4705 -25.1664
lfingers 7.12502
lthumb -3.77179 4.77997
rfemur -0.732282 18.172 26.218
rtibia 7.05469
rfoot -15.3186 -20.9862
rtoes -1.78712
lfemur 9.93206 -34.5773 -13.9282
ltibia -2.7785
lfoot -17.8538 44.9208
ltoes 4.64438
1475
root 0.806848 17.4157 9.64242 5.9088 -4.48138 -9.11181
lowerback -4.31956 0.72199 5.44235
upperback -11.4211 1.19234 2.20116
thorax -9.6602 0.218249 -0.728897
lowerneck -8.34292 -1.7142 3.70086
upperneck 28.7881 -2.83404 -1.51696
head 10.4949 -1.10703 -1.50595
rclavicle 1.58034e-014 4.77083e-015
rhumerus -3.55398 30.9374 -80.2382
rradius 77.8439
rwrist -5.51553
rhand 9.85896 -41.3704
rfingers 7.12502
rthumb 34.9926 -67.9282
lclavicle 1.58034e-014 4.77083e-015
lhumerus 36.2833 -57.899 31.9311
lradius 62.2526
lwrist 18.1881
lhand -30.1984 -23.9982
lfingers 7.12502
lthumb -3.50909 5.95268
rfemur -0.684351 18.2069 26.1263
rtibia 7.11123
rfoot -15.2907 -20.734
rtoes -2.26395
lfemur 10.2049 -34.5122 -14.2158
ltibia -2.78089
lfoot -18.1939 45.112
ltoes 5.27505
1476
root 0.811817 17.4139 9.64799 5.87201 -4.80376 -9.07321
lowerback -4.42874 0.718607 5.52081
upperback -11.439 1.18038 2.22044
thorax -9.61759 0.20624 -0.74993
lowerneck -6.743 -1.54349 4.60102
upperneck 26.7886 -2.50636 -2.03024
head 9.44408 -0.953788 -1.7456
rclavicle -2.37548e-014 7.95139e-016
rhumerus -3.2478 31.5174 -79.846
rradius 77.4811
rwrist -5.60959
rhand 9.69496 -41.5427
rfingers 7.12502
rthumb 34.837 -68.1367
lclavicle -2.37548e-014 7.95139e-016
lhumerus 35.7255 -58.2325 31.8096
lradius 63.0346
lwrist 21.1741
lhand -29.3861 -22.3812
lfingers 7.12502
lthumb -2.72458 7.58113
rfemur -0.659755 18.282 26.0491
rtibia 7.13234
rfoot -15.1961 -20.5155
rtoes -2.6798
lfemur 10.4269 -34.5001 -14.4703
ltibia -2.76814
lfoot -18.5524 45.3425
ltoes 5.63311
